<?xml version="1.0" standalone="no"?>
<!DOCTYPE svg PUBLIC "-//W3C//DTD SVG 20010904//EN"
 "http://www.w3.org/TR/2001/REC-SVG-20010904/DTD/svg10.dtd">
<svg version="1.0" xmlns="http://www.w3.org/2000/svg"
 width="512.000000pt" height="512.000000pt" viewBox="0 0 512.000000 512.000000"
 preserveAspectRatio="xMidYMid meet">

<g transform="translate(0.000000,512.000000) scale(0.100000,-0.100000)"
fill="#000000" stroke="none">
<path d="M2451 5100 c-176 -47 -333 -171 -467 -371 -102 -153 -197 -376 -247
-579 l-13 -55 -529 -5 c-461 -4 -530 -7 -532 -20 -2 -8 -62 -880 -133 -1938
l-131 -1923 83 -102 84 -102 2014 -2 2015 -3 63 146 63 145 -81 1887 c-44
1038 -82 1893 -85 1899 -3 10 -126 13 -546 15 l-541 3 -34 120 c-176 636 -572
992 -983 885z m256 -375 c99 -50 200 -172 279 -339 38 -81 104 -262 104 -287
0 -5 -204 -9 -495 -9 -272 0 -495 4 -495 8 0 4 14 50 31 102 37 117 103 258
157 337 49 73 152 170 207 194 60 28 149 25 212 -6z m-602 -1239 c58 -116 17
-271 -93 -347 -154 -108 -370 -37 -430 140 -20 58 -15 150 12 206 13 28 33 59
45 69 l21 19 0 -47 c0 -85 42 -153 115 -187 51 -23 89 -23 140 0 75 34 115
104 115 200 l0 44 25 -23 c14 -13 36 -46 50 -74z m1501 -1 c27 -56 32 -148 12
-206 -66 -196 -320 -256 -466 -111 -82 83 -106 213 -57 316 14 29 33 60 44 70
17 16 18 14 24 -44 8 -71 25 -108 66 -143 126 -106 301 -12 301 162 l0 54 26
-24 c15 -13 37 -46 50 -74z"/>
</g>
</svg>
